<svg xmlns="http://www.w3.org/2000/svg" width="475.938" height="91.682" viewBox="0 0 475.938 91.682"><g transform="translate(-150.538 -3379.696)"><g transform="translate(92.036 3322)"><path d="M244.543,41.227a17.709,17.709,0,0,0-17.654,16.635h4.433a13.262,13.262,0,0,1,26.438,0h4.434A17.711,17.711,0,0,0,244.54,41.227" transform="translate(120.627 21.919)" fill="#1a81c6"></path><path d="M257.761,53.536a13.262,13.262,0,0,1-26.438,0h-4.434a17.684,17.684,0,0,0,35.306,0Z" transform="translate(120.627 28.463)" fill="#3c3"></path><path d="M253.254,55.559a11.052,11.052,0,0,0-22,0c-.035.365-.055.734-.055,1.11s.02.744.055,1.107a11.058,11.058,0,0,0,22-2.218" transform="translate(122.916 24.222)" fill="#efc71a"></path><path d="M46.207,76.688h7.375a30.4,30.4,0,0,0,3.276-.191,9.8,9.8,0,0,0,3.21-.891,6.339,6.339,0,0,0,2.415-2.01,5.888,5.888,0,0,0,.954-3.54q0-3.573-2.32-4.973t-7.217-1.4H46.207Zm0-19.9h7.311q4.007,0,6.009-1.562a5.434,5.434,0,0,0-.06-8.481q-2.065-1.436-6.646-1.435H46.209ZM38.195,38.424h17.55a21.175,21.175,0,0,1,5.022.605,12.881,12.881,0,0,1,4.42,1.977,10.224,10.224,0,0,1,4.356,8.77,9.279,9.279,0,0,1-2.163,6.312,12,12,0,0,1-5.659,3.572v.127a11.662,11.662,0,0,1,3.913,1.179,10.428,10.428,0,0,1,3.083,2.362,10.907,10.907,0,0,1,2,3.316,11.111,11.111,0,0,1,.734,4.048,11.865,11.865,0,0,1-1.463,6.156A11.642,11.642,0,0,1,66.146,80.8a16.385,16.385,0,0,1-5.47,2.135,30.6,30.6,0,0,1-6.26.639H38.195Z" transform="translate(20.307 20.428)" fill="#0b1f73"></path><path d="M66.757,38.424H96.578v7.271H74.769v11.1H95.434v7.271H74.769V76.306H97.721v7.271H66.757Z" transform="translate(35.492 20.428)" fill="#0b1f73"></path><path d="M93.782,38.424H104.4L126.21,71.969h.127V38.424h8.014V83.576H124.179L101.921,48.945h-.127V83.576H93.782Z" transform="translate(49.86 20.428)" fill="#0b1f73"></path><path d="M151.84,48.515a7.423,7.423,0,0,0-3.4-2.711,11.858,11.858,0,0,0-4.482-.859,11.318,11.318,0,0,0-2.7.32,7.31,7.31,0,0,0-2.353,1.017,5.351,5.351,0,0,0-1.685,1.818,5.257,5.257,0,0,0-.636,2.648,4.141,4.141,0,0,0,1.591,3.507,15.528,15.528,0,0,0,3.939,2.1q2.353.894,5.152,1.725a20.806,20.806,0,0,1,5.148,2.3,12.782,12.782,0,0,1,3.941,3.889,11.6,11.6,0,0,1,1.59,6.442,14.157,14.157,0,0,1-1.336,6.344,12.884,12.884,0,0,1-3.592,4.5,15.581,15.581,0,0,1-5.246,2.682,22,22,0,0,1-6.3.893,23.565,23.565,0,0,1-8.076-1.4A15.532,15.532,0,0,1,126.722,79l6.039-5.869a10.12,10.12,0,0,0,3.848,3.478,10.781,10.781,0,0,0,5.054,1.244,10.554,10.554,0,0,0,2.8-.386,8.653,8.653,0,0,0,2.543-1.147,5.935,5.935,0,0,0,1.843-1.945,5.2,5.2,0,0,0,.7-2.711,4.726,4.726,0,0,0-1.591-3.826,13.985,13.985,0,0,0-3.941-2.262q-2.355-.926-5.151-1.754a21.556,21.556,0,0,1-5.151-2.265,12.515,12.515,0,0,1-3.941-3.826,11.39,11.39,0,0,1-1.59-6.41,12.189,12.189,0,0,1,1.429-6.056,13.089,13.089,0,0,1,3.753-4.243,16.377,16.377,0,0,1,5.31-2.521,22.951,22.951,0,0,1,6.1-.827,22.145,22.145,0,0,1,6.9,1.086,15.95,15.95,0,0,1,6.007,3.569Z" transform="translate(67.373 20.03)" fill="#0b1f73"></path><path d="M160.192,61.083a19.462,19.462,0,0,0,1.112,6.695,15.688,15.688,0,0,0,3.148,5.293,14.615,14.615,0,0,0,4.865,3.509,15.232,15.232,0,0,0,6.327,1.276A15.457,15.457,0,0,0,182,76.581a14.576,14.576,0,0,0,4.9-3.509,15.709,15.709,0,0,0,3.146-5.293,19.427,19.427,0,0,0,1.114-6.695,17.632,17.632,0,0,0-1.114-6.315,15.669,15.669,0,0,0-3.146-5.136A14.463,14.463,0,0,0,182,46.19a15.811,15.811,0,0,0-6.358-1.242,15.553,15.553,0,0,0-6.327,1.242,14.486,14.486,0,0,0-4.865,3.443,15.648,15.648,0,0,0-3.148,5.136,17.7,17.7,0,0,0-1.112,6.315m-8.393.51a26.239,26.239,0,0,1,1.781-9.855,22.111,22.111,0,0,1,4.927-7.556,21.577,21.577,0,0,1,7.5-4.816,26.3,26.3,0,0,1,9.568-1.691,26.7,26.7,0,0,1,9.665,1.565,21.109,21.109,0,0,1,7.568,4.751,21.959,21.959,0,0,1,4.958,7.525,26.008,26.008,0,0,1,1.781,9.821,25.157,25.157,0,0,1-1.781,9.631,22.1,22.1,0,0,1-4.958,7.456,22.627,22.627,0,0,1-7.568,4.88,26.748,26.748,0,0,1-9.665,1.821,26.246,26.246,0,0,1-9.57-1.692A21.474,21.474,0,0,1,153.58,71.223a25.092,25.092,0,0,1-1.781-9.63" transform="translate(80.704 20.027)" fill="#0b1f73"></path><path d="M189.388,38.424h10.617l21.811,33.545h.129V38.424h8.007V83.576H219.779L197.527,48.945H197.4V83.576H189.39Z" transform="translate(100.69 20.428)" fill="#0b1f73"></path><path d="M260.956,38.424h8.011V56.409h21.047V38.424h8.012V83.576h-8.012v-19.9H268.967v19.9h-8.011Z" transform="translate(138.739 20.428)" fill="#0b1f73"></path><rect width="8.012" height="45.152" transform="translate(449.165 58.852)" fill="#0b1f73"></rect><path d="M306.58,38.424h8.011V76.306h19.14v7.271H306.58Z" transform="translate(162.995 20.428)" fill="#0b1f73"></path><path d="M328.125,38.424h8.011V76.306h19.141v7.271H328.125Z" transform="translate(174.45 20.428)" fill="#0b1f73"></path><path d="M341.8,43.863a5.423,5.423,0,0,1,.432-2.164,5.291,5.291,0,0,1,1.182-1.731,5.564,5.564,0,0,1,1.738-1.146,5.513,5.513,0,0,1,4.212,0,5.557,5.557,0,0,1,1.737,1.146,5.291,5.291,0,0,1,1.182,1.731,5.635,5.635,0,0,1,0,4.335,5.329,5.329,0,0,1-1.182,1.725,5.611,5.611,0,0,1-1.737,1.146,5.532,5.532,0,0,1-4.212,0,5.618,5.618,0,0,1-1.738-1.146,5.329,5.329,0,0,1-1.182-1.725,5.4,5.4,0,0,1-.432-2.17m.968,0a4.8,4.8,0,0,0,.352,1.849,4.664,4.664,0,0,0,.954,1.475,4.447,4.447,0,0,0,1.423.983,4.359,4.359,0,0,0,1.761.358,4.312,4.312,0,0,0,1.754-.358,4.55,4.55,0,0,0,1.423-.983,4.6,4.6,0,0,0,.96-1.475,5.008,5.008,0,0,0,0-3.69,4.5,4.5,0,0,0-2.383-2.466,4.312,4.312,0,0,0-1.754-.358,4.359,4.359,0,0,0-1.761.358,4.447,4.447,0,0,0-1.423.983,4.648,4.648,0,0,0-.954,1.483,4.806,4.806,0,0,0-.352,1.841m2.408-3.2h2.4q2.231,0,2.232,1.82a1.562,1.562,0,0,1-.484,1.268,2.175,2.175,0,0,1-1.2.476l1.833,2.818h-1.042L347.186,44.3h-1.042v2.745h-.968Zm.968,2.846h1c.216,0,.426-.008.631-.023a1.6,1.6,0,0,0,.542-.124.86.86,0,0,0,.383-.323,1.077,1.077,0,0,0,.147-.6.936.936,0,0,0-.133-.522.881.881,0,0,0-.337-.3,1.4,1.4,0,0,0-.455-.132,4.216,4.216,0,0,0-.5-.029h-1.276Z" transform="translate(181.721 20.418)" fill="#0b1f73"></path></g><path d="M-76.387-14.868h3.276V0h-3.276Zm7.518,0h4.452L-58.1-4.536h.042V-14.868h3.276V0h-4.284l-6.489-10.584h-.042V0h-3.276ZM-37.034-1.05A11.859,11.859,0,0,1-40.057.042a15.357,15.357,0,0,1-3.213.336,9.16,9.16,0,0,1-3.213-.546,7.355,7.355,0,0,1-2.541-1.565A7.093,7.093,0,0,1-50.694-4.2a8.4,8.4,0,0,1-.6-3.234,8.4,8.4,0,0,1,.6-3.234,7.093,7.093,0,0,1,1.669-2.468A7.355,7.355,0,0,1-46.484-14.7a9.16,9.16,0,0,1,3.213-.546,11.892,11.892,0,0,1,3.286.431,6.435,6.435,0,0,1,2.636,1.481l-2.31,2.52a4.6,4.6,0,0,0-1.512-1.05,5.388,5.388,0,0,0-2.1-.357,4.866,4.866,0,0,0-1.9.357,4.265,4.265,0,0,0-1.459,1,4.381,4.381,0,0,0-.934,1.522,5.478,5.478,0,0,0-.326,1.911,5.453,5.453,0,0,0,.326,1.922A4.4,4.4,0,0,0-46.631-4a4.265,4.265,0,0,0,1.459,1,4.866,4.866,0,0,0,1.9.357,6.262,6.262,0,0,0,1.848-.241,6.974,6.974,0,0,0,1.239-.493V-5.8h-2.667V-8.82h5.817ZM-32.9-14.868h5.754a10.153,10.153,0,0,1,2.153.22,5.107,5.107,0,0,1,1.785.735,3.662,3.662,0,0,1,1.218,1.386,4.694,4.694,0,0,1,.451,2.174,4.364,4.364,0,0,1-.819,2.677,3.687,3.687,0,0,1-2.394,1.4L-20.968,0H-24.9L-28-5.943H-29.62V0H-32.9Zm3.276,6.153h1.932q.441,0,.934-.031a2.927,2.927,0,0,0,.893-.189,1.544,1.544,0,0,0,.661-.493,1.5,1.5,0,0,0,.263-.945,1.569,1.569,0,0,0-.231-.9,1.54,1.54,0,0,0-.588-.514,2.608,2.608,0,0,0-.819-.241,6.68,6.68,0,0,0-.9-.063H-29.62ZM-17.9-14.868H-7.8v3.024h-6.825v2.772h6.447v3.024h-6.447v3.024h7.2V0H-17.9Zm14.364,0H1.376a14.026,14.026,0,0,1,3.392.4,7.761,7.761,0,0,1,2.8,1.292,6.327,6.327,0,0,1,1.9,2.32,7.781,7.781,0,0,1,.7,3.465A7.07,7.07,0,0,1,9.492-4.21,6.841,6.841,0,0,1,7.655-1.9,8.124,8.124,0,0,1,4.988-.483,10.357,10.357,0,0,1,1.817,0H-3.538ZM-.262-3.024h1.7a9.155,9.155,0,0,0,2.11-.231A4.51,4.51,0,0,0,5.24-4.021,3.676,3.676,0,0,0,6.363-5.429a4.99,4.99,0,0,0,.41-2.132,4.156,4.156,0,0,0-.41-1.9,3.8,3.8,0,0,0-1.1-1.333,4.825,4.825,0,0,0-1.627-.788,7.227,7.227,0,0,0-1.964-.262H-.262ZM13.618-14.868h3.276V0H13.618Zm7.644,0h10.1v3.024H24.539v2.772h6.447v3.024H24.539v3.024h7.2V0H21.263Zm14.364,0h4.452L46.4-4.536h.042V-14.868h3.276V0H45.434L38.945-10.584H38.9V0H35.627Zm21.252,2.9H52.637v-2.9H64.4v2.9H60.155V0H56.879Zm17.787.735a2.333,2.333,0,0,0-1.081-.745,3.876,3.876,0,0,0-1.292-.241,3.384,3.384,0,0,0-.735.084,2.817,2.817,0,0,0-.714.262,1.556,1.556,0,0,0-.546.473,1.2,1.2,0,0,0-.21.714,1.184,1.184,0,0,0,.5,1.029,4.773,4.773,0,0,0,1.271.609q.766.252,1.648.5a6.793,6.793,0,0,1,1.648.714,3.9,3.9,0,0,1,1.271,1.239,3.776,3.776,0,0,1,.5,2.079,4.78,4.78,0,0,1-.462,2.163A4.389,4.389,0,0,1,75.222-.819a5.317,5.317,0,0,1-1.827.9A8.027,8.027,0,0,1,71.2.378a7.961,7.961,0,0,1-2.688-.441A6.736,6.736,0,0,1,66.2-1.491l2.331-2.562A3.4,3.4,0,0,0,69.8-3.013a3.627,3.627,0,0,0,1.585.367A3.587,3.587,0,0,0,72.2-2.74a2.634,2.634,0,0,0,.735-.283,1.585,1.585,0,0,0,.525-.483,1.2,1.2,0,0,0,.2-.693,1.257,1.257,0,0,0-.515-1.06,4.742,4.742,0,0,0-1.292-.661q-.777-.273-1.68-.546a7.544,7.544,0,0,1-1.68-.735A4.049,4.049,0,0,1,67.2-8.421a3.485,3.485,0,0,1-.514-1.995,4.466,4.466,0,0,1,.472-2.1,4.556,4.556,0,0,1,1.26-1.512,5.478,5.478,0,0,1,1.816-.913,7.435,7.435,0,0,1,2.121-.3,8.34,8.34,0,0,1,2.436.357,5.618,5.618,0,0,1,2.121,1.2Z" transform="translate(458 3471)" fill="#1a81c6"></path></g></svg>